# xmcd
#
# Track frame offsets:
#	150
#	10038
#	23670
#	38782
#	50508
#	63677
#	74919
#	89021
#	107676
#	121518
#	134679
#	147781
#	163520
#	175887
#	187100
#	199811
#	213357
#	227295
#	239239
#	250934
#	261743
#	275180
#	287713
#	300091
#	311795
#	325120
#
# Disc length: 4542 seconds
#
# Revision: 1
# Processed by: cddbd v1.5.1PL0 Copyright (c) Steve Scherf et al.
# Submitted via: audiograbber 1.83.01
#
DISCID=8e11bc1a
DTITLE=Barbara Ray - The Heart and Soul of Barbara Ray CD1
DYEAR=1999
DGENRE=Pop
TTITLE0=Like I do
TTITLE1=Happy birthday baby
TTITLE2=Silver threads and golden needles
TTITLE3=I don't wanna play house
TTITLE4=Wild side of life
TTITLE5=Blackboard of my heart
TTITLE6=Valley of the moon
TTITLE7=Bo-jangle island
TTITLE8=Divorce
TTITLE9=Serenade of the bells
TTITLE10=Mary Brown
TTITLE11=Lonely comin' down
TTITLE12=Jambalaya
TTITLE13=Over and over
TTITLE14=Dance on
TTITLE15=Who's gonna tie my shoes
TTITLE16=To be a child again
TTITLE17=I need you
TTITLE18=Funny face
TTITLE19=Single girl
TTITLE20=I'm gonna be a country girl again
TTITLE21=Island of dreams
TTITLE22=Joey
TTITLE23=Take these chains from my heart
TTITLE24=Let me be there
TTITLE25=Sad movies
EXTD=
EXTT0=
EXTT1=
EXTT2=
EXTT3=
EXTT4=
EXTT5=
EXTT6=
EXTT7=
EXTT8=
EXTT9=
EXTT10=
EXTT11=
EXTT12=
EXTT13=
EXTT14=
EXTT15=
EXTT16=
EXTT17=
EXTT18=
EXTT19=
EXTT20=
EXTT21=
EXTT22=
EXTT23=
EXTT24=
EXTT25=
PLAYORDER=
